PathFileType	4	(X/Y/Z)	RBDS04\RBDS04runT25.trc
DataRate	CameraRate	NumFrames	NumMarkers	Units	OrigDataRate	OrigDataStartFrame	OrigNumFrames
150.000000	150.000000	4	33	mm	150.000000	2250	4500
Frame#	Time	L.ASIS			L.Heel.Bottom			L.Heel.Lateral			L.Heel.Top			L.Iliac.Crest			L.MT1			L.MT5			L.PSIS			L.Shank.Bottom.Lateral			L.Shank.Bottom.Medial			L.Shank.Top.Lateral			L.Shank.Top.Medial			L.Thigh.Bottom.Lateral			L.Thigh.Bottom.Medial			L.Thigh.Top.Lateral			L.Thigh.Top.Medial			R.ASIS			R.ASY			R.Heel.Bottom			R.Heel.Lateral			R.Heel.Top			R.Iliac.Crest			R.MT1			R.MT5			R.PSIS			R.Shank.Bottom.Lateral			R.Shank.Bottom.Medial			R.Shank.Top.Lateral			R.Shank.Top.Medial			R.Thigh.Bottom.Lateral			R.Thigh.Bottom.Medial			R.Thigh.Top.Lateral			R.Thigh.Top.Medial			
		X1	Y1	Z1	X2	Y2	Z2	X3	Y3	Z3	X4	Y4	Z4	X5	Y5	Z5	X6	Y6	Z6	X7	Y7	Z7	X8	Y8	Z8	X9	Y9	Z9	X10	Y10	Z10	X11	Y11	Z11	X12	Y12	Z12	X13	Y13	Z13	X14	Y14	Z14	X15	Y15	Z15	X16	Y16	Z16	X17	Y17	Z17	X18	Y18	Z18	X19	Y19	Z19	X20	Y20	Z20	X21	Y21	Z21	X22	Y22	Z22	X23	Y23	Z23	X24	Y24	Z24	X25	Y25	Z25	X26	Y26	Z26	X27	Y27	Z27	X28	Y28	Z28	X29	Y29	Z29	X30	Y30	Z30	X31	Y31	Z31	X32	Y32	Z32	X33	Y33	Z33	

2251	15	2110.653200059995	952.0743141761454	872.123512192622	1694.951606702403	79.16837353103357	935.8518953626137	1729.212272848185	87.81580816349775	893.3498791501925	1716.14610018701	121.6308593310032	934.2411769830131	2059.033246760145	1016.555550540991	830.1323831810921	1903.930621740894	47.02296000784276	970.4713052792627	1868.560291748269	42.4217375610469	872.7065176081145	1950.59781437445	992.092921541568	938.9740872612695	1824.044681386905	194.1649930589272	879.1426806485381	1784.497930589927	215.6950768189046	902.0616798413838	1856.571453786919	265.8949440450537	860.1199967901294	1817.213404402411	291.7959485486012	885.6241689590428	2005.213146976438	594.7332676416095	818.9649922773639	1941.115860909031	598.7064592534349	854.0838871721654	1998.618462166435	703.6257528753977	800.7870859692639	1939.067915849806	707.7208439379012	835.3531579101256	2117.002914693935	946.7689203737465	1064.893627192793	1993.402562276196	155.5581371050134	1049.7040564205	1832.01229068881	231.1610080353944	1027.49023949573	1863.703091024709	222.7221475955398	1070.682494574957	1869.482514606145	257.4756966723919	1029.022599975967	2061.834348455567	1009.575919036379	1114.570576010325	1999.089226060231	96.60153222984017	1014.851423409875	1964.319162460515	112.2150303639576	1106.398320639849	1953.043853300552	991.1057067284024	1023.630554046029	1968.818079319618	291.9767084191191	1085.140465821647	1945.901165548156	318.5057184369978	1043.476638261829	2016.9553359982	356.7206274787213	1096.770355881413	1994.83965361641	380.9807727300009	1054.243537165027	2170.597431819506	601.8522371819284	1125.154684263854	2118.301049044967	575.7857062473464	1080.572417056887	2110.154512382192	692.8113576615445	1141.249197209964	2057.800568159967	665.5866519094102	1102.255058358283	
2252	15.00666666666667	2111.655908517657	955.4329857839579	871.837744931973	1681.910598673926	88.11184450381111	935.6531940491933	1716.468721211983	94.89016174751485	893.0297215422738	1704.914402925351	129.5325208209561	933.7116530278672	2061.317042939033	1021.423678226861	830.6019296933935	1888.123659773745	46.78177817172093	970.1567168763139	1852.872512274359	43.05391421180109	872.4922052569858	1951.988531836714	996.3834366423898	938.5268832257851	1812.214422794632	200.2304202000605	878.4421981561586	1773.053406541188	221.6777439245289	902.0570835224903	1844.896729710776	272.0017085082055	859.842165113096	1805.924154624176	297.7787871402597	885.9542297712381	1998.223333019405	599.0099283832868	819.5429601615464	1934.426289296808	604.5859855991814	855.0191929145582	1994.255593106329	708.0181013104262	801.4048810325189	1935.040925523373	713.6569909185386	836.349526729181	2117.963200793257	952.1819710177011	1064.806076235469	2013.54616941417	150.9792469825393	1050.031640657925	1848.169667280614	217.4053737024727	1026.330318199976	1879.868308521334	210.5519774065677	1069.777314897186	1884.123922889588	245.7242146182679	1028.221900268545	2062.235704300878	1014.907979394163	1114.312468839708	2022.637913570958	92.41746168358267	1015.177375890504	1986.22021226582	105.7744275836435	1106.247565669942	1954.111351748918	995.966668588623	1023.337359030742	1981.418114225442	285.7745420318871	1084.855853412283	1957.420088758026	311.1046113682848	1042.951011312066	2026.059791927352	352.9251397004738	1096.657689710968	2003.017032169838	375.9981839361058	1053.92995179511	2173.230010381325	608.0629335716543	1125.508901029236	2120.533221433842	581.4108055380764	1081.761220629074	2112.52915779717	698.8049783966271	1141.680250776981	2059.971551244557	671.1326631977323	1103.300501277399	
2253	15.01333333333333	2112.814453591433	958.7668279739095	871.7185588142104	1669.651552921087	97.67138782136529	935.3761811243065	1704.471724366005	102.4896197836848	892.6579486025623	1694.562490105001	137.8910800317849	933.1649365619099	2063.580648785974	1026.238187772258	831.1534362868875	1872.555481483249	46.59302674184801	969.8382838679557	1837.533625989712	43.8526521370587	872.2058218852167	1953.523737257175	1000.692352986928	938.1498197323739	1801.143071286594	206.4533618336281	877.6329042033943	1762.377937968106	227.7908477814141	901.9878114475172	1833.936124077582	278.2827751991053	859.4590468959682	1795.357497024947	303.9032593181857	886.2140998448292	1991.690154460347	603.4692984442801	819.9938299448595	1928.241854831963	610.5242590128726	855.8467864719987	1990.215601714392	712.5407374952689	801.9911064293766	1931.393781428461	719.6217095894484	837.3374143318121	2118.987673197517	957.4609274713737	1064.831509770429	2033.958273108886	146.498027373992	1050.35584592376	1865.122449888499	203.5397027246281	1025.077859351802	1896.68390094325	198.2753042478735	1068.811637981649	1899.403175240902	233.816212534742	1027.357503141033	2062.70434662759	1020.245823777756	1114.088070489669	2046.517003335066	88.55725471989062	1015.539737242716	2008.522946916436	99.52628136937362	1106.117242752956	1955.301166235161	1000.797840687697	1023.096868833515	1994.304794474973	279.3681676178113	1084.578692570861	1969.27706498011	303.4380629366368	1042.429150035657	2035.241041011497	348.7895722876137	1096.581472901295	2011.333555757396	370.612524894521	1053.641798054259	2175.198344073491	613.8185118808268	1125.73265313416	2122.100412367934	586.7376836413683	1082.762075744384	2114.432635826332	704.4918530662188	1141.986855263068	2061.658659571538	676.5292021979607	1104.153703735904	
2254	15.02	2114.098921824403	962.0305038331262	871.74687521461	1658.223034208387	107.7689347092287	934.9996468391631	1693.255717044769	110.5574332553828	892.2189762168647	1685.103524126327	146.629834540746	932.5851249195548	2065.827350561092	1030.934288137281	831.7644285292563	1857.274673543991	46.51922720806917	969.5386993888222	1822.581430219119	44.86685649920138	871.8549635221426	1955.174742795549	1004.96822057367	937.8501079202297	1790.851536296153	212.7555462727711	876.7279698489925	1752.482011189695	233.9670584055537	901.8418921100999	1823.728089802006	284.6561859477555	858.9787700195404	1785.535178660428	310.0991170950861	886.3876201950712	1985.628104008701	608.0433996591084	820.3318663173762	1922.571130101476	616.4534335792036	856.5828113958109	1986.498299285228	717.1336250695088	802.5407099453226	1928.120620049556	725.5497609619487	838.3148632203744	2120.056561900167	962.5125971000941	1064.943136027231	2054.596604203087	142.1579025134396	1050.652394764628	1882.858098763194	189.6838566898192	1023.806478387181	1914.153684830907	186.0041494490764	1067.844611757785	1915.318193756569	221.8565463910992	1026.489533694423	2063.264683137048	1025.505500123359	1113.883987928575	2070.647908347144	85.06660440634916	1015.905390833344	2031.208163245373	93.53747837612448	1105.995332097641	1956.603907828003	1005.533282217972	1022.914872460681	2007.495922137044	272.8056004889018	1084.339301164203	1981.488379655084	295.5560183147024	1041.954324465293	2044.541504873566	344.3306685668439	1096.568557452795	2019.825537866387	364.8482498696541	1053.417420860727	2176.467663120056	619.0174884588816	1125.81497552191	2122.978664858062	591.6671853102391	1083.543866019569	2115.826945305838	709.7718076802701	1142.144936914088	2062.818622727825	681.6712719052074	1104.791629665976	
